<?xml version="1.0" encoding="UTF-8" standalone="no"?>
<svg
   xmlns:dc="http://purl.org/dc/elements/1.1/"
   xmlns:cc="http://creativecommons.org/ns#"
   xmlns:rdf="http://www.w3.org/1999/02/22-rdf-syntax-ns#"
   xmlns:svg="http://www.w3.org/2000/svg"
   xmlns="http://www.w3.org/2000/svg"
   xmlns:sodipodi="http://sodipodi.sourceforge.net/DTD/sodipodi-0.dtd"
   xmlns:inkscape="http://www.inkscape.org/namespaces/inkscape"
   version="1.0"
   width="550.29999pt"
   height="105.30129pt"
   viewBox="0 0 550.29999 105.30129"
   preserveAspectRatio="xMidYMid meet"
   id="svg50"
   sodipodi:docname="logo.svg"
   inkscape:version="1.0.2 (e86c870879, 2021-01-15)">
  <metadata
     id="metadata56">
    <rdf:RDF>
      <cc:Work
         rdf:about="">
        <dc:format>image/svg+xml</dc:format>
        <dc:type
           rdf:resource="http://purl.org/dc/dcmitype/StillImage" />
        <dc:title />
      </cc:Work>
    </rdf:RDF>
  </metadata>
  <defs
     id="defs54" />
  <sodipodi:namedview
     pagecolor="#ffffff"
     bordercolor="#666666"
     borderopacity="1"
     objecttolerance="10"
     gridtolerance="10"
     guidetolerance="10"
     inkscape:pageopacity="0"
     inkscape:pageshadow="2"
     inkscape:window-width="1920"
     inkscape:window-height="1016"
     id="namedview52"
     showgrid="false"
     fit-margin-top="0"
     fit-margin-left="0"
     fit-margin-right="0"
     fit-margin-bottom="0"
     inkscape:zoom="1.0320147"
     inkscape:cx="428.79016"
     inkscape:cy="8.1569112"
     inkscape:window-x="0"
     inkscape:window-y="0"
     inkscape:window-maximized="1"
     inkscape:current-layer="svg50"
     inkscape:document-rotation="0" />
  <g
     transform="matrix(0.1,0,0,-0.1,-20,138)"
     fill="#000000"
     stroke="none"
     id="g48"
     style="fill:#8b7aa0;fill-opacity:1">
    <path
       d="m 2786,1336 c -20,-23 -36,-46 -36,-50 0,-3 19,-6 41,-6 34,0 51,7 87,38 25,20 53,42 61,49 13,10 4,12 -51,13 h -67 z"
       id="path2"
       style="fill:#8b7aa0;fill-opacity:1" />
    <path
       d="m 3411,1249 c -214,-42 -259,-320 -68,-422 62,-33 193,-31 262,3 l 50,25 v 90 90 l -62,3 -63,3 v -54 c 0,-58 -7,-67 -56,-67 -92,0 -138,112 -75,182 25,28 36,33 73,33 28,0 53,-7 73,-22 l 30,-21 44,37 c 54,46 51,60 -21,94 -62,30 -126,39 -187,26 z"
       id="path4"
       style="fill:#8b7aa0;fill-opacity:1" />
    <path
       d="m 4032,1250 c -111,-23 -182,-109 -182,-220 0,-124 88,-215 219,-227 208,-19 340,184 230,351 -50,76 -165,117 -267,96 z m 131,-150 c 31,-35 36,-84 12,-130 -30,-59 -98,-68 -146,-21 -24,24 -29,38 -29,76 0,56 11,80 48,100 37,21 81,11 115,-25 z"
       id="path6"
       style="fill:#8b7aa0;fill-opacity:1" />
    <path
       d="m 5360,1251 c -118,-25 -190,-109 -190,-221 0,-89 43,-160 125,-203 57,-31 183,-31 242,0 118,63 157,207 87,320 -48,77 -168,124 -264,104 z m 95,-127 c 93,-44 61,-204 -41,-204 -55,0 -94,44 -94,107 0,53 20,86 60,102 34,13 37,13 75,-5 z"
       id="path8"
       style="fill:#8b7aa0;fill-opacity:1" />
    <path
       d="M 220,1031 V 810 h 69 70 l 3,53 3,52 76,6 c 84,7 101,14 144,58 25,27 30,41 33,94 4,76 -17,116 -80,148 -36,19 -64,23 -180,27 l -138,5 z m 246,74 c 15,-23 15,-27 0,-50 -14,-21 -25,-25 -61,-25 h -45 v 50 50 h 45 c 36,0 47,-4 61,-25 z"
       id="path10"
       style="fill:#8b7aa0;fill-opacity:1" />
    <path
       d="m 827,1244 c -4,-4 -7,-103 -7,-221 V 810 h 185 185 v 55 55 H 1080 970 v 30 30 h 90 90 v 50 50 h -91 -90 l 3,26 c 3,25 4,26 103,27 l 100,2 v 55 55 l -171,3 c -93,1 -173,-1 -177,-4 z"
       id="path12"
       style="fill:#8b7aa0;fill-opacity:1" />
    <path
       d="M 1390,1030 V 810 h 70 70 v 95 c 0,52 3,95 8,94 4,0 41,-42 82,-92 l 76,-92 62,-3 62,-3 v 221 220 h -70 -70 v -96 c 0,-53 -4,-94 -9,-92 -5,2 -43,45 -86,96 l -77,92 h -59 -59 z"
       id="path14"
       style="fill:#8b7aa0;fill-opacity:1" />
    <path
       d="m 2004,1236 c -3,-7 -4,-33 -2,-57 l 3,-44 63,-3 62,-3 V 970 810 h 75 75 v 160 159 l 63,3 62,3 v 55 55 l -198,3 c -162,2 -198,0 -203,-12 z"
       id="path16"
       style="fill:#8b7aa0;fill-opacity:1" />
    <path
       d="m 2733,1238 c -12,-20 -183,-411 -183,-420 0,-4 32,-8 71,-8 h 71 l 15,40 16,41 81,-3 81,-3 18,-37 17,-38 h 74 75 l -80,183 c -44,100 -87,199 -96,220 l -15,37 h -68 c -44,0 -72,-4 -77,-12 z m 107,-235 c 0,-8 -14,-13 -36,-13 -33,0 -36,2 -30,25 3,13 11,37 17,52 l 11,28 19,-40 c 10,-22 19,-46 19,-52 z"
       id="path18"
       style="fill:#8b7aa0;fill-opacity:1" />
    <path
       d="M 4540,1030 V 810 h 70 69 l 3,97 3,98 80,-98 80,-97 h 63 62 l -2,218 -3,217 h -70 -70 l -5,-94 -5,-94 -79,96 -80,97 h -58 -58 z"
       id="path20"
       style="fill:#8b7aa0;fill-opacity:1" />
    <path
       d="m 1554,765 c -59,-29 -87,-72 -86,-131 1,-77 50,-118 175,-145 31,-7 57,-16 57,-21 0,-16 -105,-8 -148,12 l -43,19 -25,-56 c -13,-31 -22,-63 -20,-70 8,-20 113,-45 191,-46 130,-1 205,56 205,157 0,70 -39,107 -140,131 -41,9 -79,21 -84,26 -18,17 28,22 83,10 31,-7 62,-13 69,-14 14,-2 64,102 56,115 -10,16 -111,38 -174,38 -50,0 -78,-6 -116,-25 z m 205,-6 c 28,-6 53,-14 56,-19 3,-5 -2,-25 -12,-45 -14,-29 -21,-35 -38,-30 -77,24 -155,17 -155,-14 0,-27 16,-36 100,-56 92,-22 130,-55 130,-110 0,-84 -67,-135 -178,-135 -70,0 -159,17 -168,32 -3,5 2,27 11,48 15,33 20,38 36,29 11,-5 43,-14 73,-20 68,-12 109,1 104,33 -2,19 -17,26 -88,46 -107,29 -140,57 -140,119 0,101 118,155 269,122 z"
       id="path22"
       style="fill:#8b7aa0;fill-opacity:1" />
    <path
       d="m 5405,771 c -61,-27 -95,-73 -95,-127 0,-87 47,-129 173,-154 31,-6 57,-16 57,-21 0,-16 -104,-9 -147,11 l -42,19 -26,-57 c -14,-31 -23,-62 -21,-69 8,-20 112,-45 190,-46 127,-1 209,57 209,149 0,77 -38,114 -151,141 -39,10 -72,23 -74,28 -5,17 61,17 110,1 25,-9 47,-16 49,-16 8,0 52,113 47,121 -10,17 -109,39 -173,39 -42,0 -81,-7 -106,-19 z m 201,-12 c 24,-6 46,-15 49,-19 3,-4 -2,-25 -11,-45 -13,-31 -19,-36 -37,-30 -12,4 -47,9 -77,12 -45,4 -59,2 -70,-12 -19,-23 -2,-47 41,-57 139,-32 179,-60 179,-125 0,-84 -65,-132 -177,-133 -70,0 -160,17 -169,32 -3,5 2,27 11,48 15,33 20,38 36,29 11,-5 43,-14 73,-20 68,-12 109,1 104,33 -2,19 -16,26 -88,46 -104,28 -140,60 -140,122 0,98 132,155 276,119 z"
       id="path24"
       style="fill:#8b7aa0;fill-opacity:1" />
    <path
       d="m 202,558 3,-223 h 145 c 129,1 151,3 195,23 60,28 82,47 105,92 45,90 30,196 -37,262 -58,57 -103,68 -269,68 H 200 Z m 302,191 c 54,-13 114,-62 132,-105 8,-19 14,-59 14,-90 C 650,474 618,421 548,386 500,362 486,360 363,360 H 230 v 200 200 h 116 c 63,0 135,-5 158,-11 z"
       id="path26"
       style="fill:#8b7aa0;fill-opacity:1" />
    <path
       d="M 350,560 V 450 h 61 c 54,0 64,3 90,29 22,23 29,39 29,70 0,83 -40,121 -130,121 h -50 z m 138,54 c 20,-23 23,-35 19,-68 -7,-53 -36,-76 -93,-76 h -44 v 91 92 l 47,-6 c 35,-4 53,-12 71,-33 z"
       id="path28"
       style="fill:#8b7aa0;fill-opacity:1" />
    <path
       d="M 902,573 C 852,459 808,357 805,348 c -6,-16 1,-18 77,-18 h 85 l 16,40 15,40 h 72 72 l 15,-40 16,-40 h 84 c 60,0 83,3 82,13 0,6 -42,106 -93,222 l -92,210 -81,3 -80,3 z m 287,65 c 29,-68 68,-158 87,-200 l 33,-78 h -63 c -63,0 -63,0 -72,33 l -10,32 -91,3 -91,3 -13,-36 c -13,-35 -14,-35 -71,-35 -32,0 -58,4 -58,8 0,4 30,75 66,157 36,83 74,169 84,193 l 19,42 h 63 64 z"
       id="path30"
       style="fill:#8b7aa0;fill-opacity:1" />
    <path
       d="m 1041,585 c -13,-36 -21,-68 -18,-71 2,-3 27,-4 55,-2 l 49,3 -26,68 c -14,37 -28,67 -32,67 -3,0 -16,-29 -28,-65 z m 43,-17 c 8,-33 8,-34 -14,-35 -11,-1 -20,1 -20,5 1,19 13,52 20,52 4,0 10,-10 14,-22 z"
       id="path32"
       style="fill:#8b7aa0;fill-opacity:1" />
    <path
       d="m 2352,558 3,-223 188,-3 187,-2 v 67 68 h -102 c -90,0 -103,2 -106,18 -3,15 6,17 88,17 h 91 l -3,61 -3,61 -84,2 c -58,1 -86,5 -88,14 -4,9 20,12 96,12 h 101 v 65 65 h -185 -185 z m 346,160 -3,-43 h -98 -97 v -37 -38 h 90 90 v -40 -40 h -90 -90 v -40 -40 h 105 105 v -40 -40 h -165 -165 v 200 200 h 161 160 z"
       id="path34"
       style="fill:#8b7aa0;fill-opacity:1" />
    <path
       d="m 2870,775 c 0,-2 34,-52 75,-110 l 75,-105 -80,-110 c -44,-61 -80,-113 -80,-115 0,-3 42,-5 94,-5 h 94 l 31,50 c 17,28 36,48 41,45 5,-3 21,-26 36,-51 l 26,-44 h 94 c 52,0 94,3 94,6 0,3 -34,54 -77,112 -42,59 -76,111 -76,117 0,6 29,51 64,100 36,50 68,96 73,103 5,9 -14,12 -84,12 h -91 l -27,-45 c -15,-24 -30,-45 -34,-45 -3,0 -19,20 -35,45 l -28,45 h -92 c -51,0 -93,-2 -93,-5 z m 206,-70 c 20,-30 40,-55 43,-55 3,0 22,25 41,55 l 35,55 h 64 63 l -24,-32 c -13,-18 -45,-62 -70,-98 l -46,-65 74,-102 74,-103 h -69 -69 l -38,59 -39,60 -39,-60 -39,-59 h -63 c -35,0 -64,2 -64,5 0,3 29,46 65,95 36,49 65,95 65,101 0,6 -26,47 -58,92 -32,45 -61,88 -66,95 -5,9 9,12 58,12 h 66 z"
       id="path36"
       style="fill:#8b7aa0;fill-opacity:1" />
    <path
       d="m 3651,762 c -21,-39 -181,-412 -181,-421 0,-7 30,-11 81,-11 h 81 l 15,40 16,40 h 72 73 l 16,-40 16,-40 h 86 c 65,0 85,3 81,13 -3,6 -47,108 -98,225 l -92,212 h -78 c -64,0 -80,-3 -88,-18 z m 230,-187 c 105,-239 102,-215 30,-215 -59,0 -60,0 -72,35 l -13,35 h -92 -91 l -9,-32 c -9,-32 -11,-33 -72,-36 l -63,-3 14,33 c 8,18 47,109 87,201 l 74,168 64,-3 64,-3 z"
       id="path38"
       style="fill:#8b7aa0;fill-opacity:1" />
    <path
       d="m 3706,586 c -14,-37 -26,-68 -26,-71 0,-3 25,-5 55,-5 30,0 55,2 55,5 0,10 -43,121 -50,128 -4,5 -19,-21 -34,-57 z m 48,-47 c -6,-10 -35,-4 -34,7 0,5 3,18 6,28 6,18 7,18 19,-5 7,-13 11,-27 9,-30 z"
       id="path40"
       style="fill:#8b7aa0;fill-opacity:1" />
    <path
       d="m 4120,715 v -65 h 60 59 l 3,-157 3,-158 83,-3 82,-3 v 161 160 h 60 60 v 65 65 h -205 -205 z m 390,0 v -45 h -60 -60 V 515 360 h -65 -66 l 2,153 1,152 -61,3 -61,3 v 44 45 h 185 185 z"
       id="path42"
       style="fill:#8b7aa0;fill-opacity:1" />
    <path
       d="m 4741,568 c -51,-117 -95,-219 -98,-225 -4,-10 16,-13 80,-13 h 85 l 16,40 16,40 h 70 70 l 20,-40 20,-40 h 80 c 58,0 80,4 80,13 0,6 -42,106 -93,222 l -92,210 -81,3 -80,3 z m 309,25 c 40,-93 79,-183 87,-200 l 13,-33 h -60 c -60,0 -61,0 -76,35 l -14,35 h -89 -89 l -12,-35 c -11,-35 -12,-35 -71,-35 -32,0 -59,3 -59,6 0,3 30,73 66,157 36,83 75,170 85,194 l 18,43 h 64 63 z"
       id="path44"
       style="fill:#8b7aa0;fill-opacity:1" />
    <path
       d="m 4890,605 c -11,-26 -23,-58 -26,-71 -6,-23 -4,-24 50,-24 31,0 56,1 56,3 0,6 -52,132 -56,136 -2,2 -13,-17 -24,-44 z m 39,-60 c 1,-6 -8,-11 -19,-12 -23,-2 -23,-3 -9,34 10,26 12,27 19,8 5,-11 9,-25 9,-30 z"
       id="path46"
       style="fill:#8b7aa0;fill-opacity:1" />
  </g>
</svg>
