<?xml version="1.0" encoding="UTF-8" standalone="no"?>
<svg
   xmlns:osb="http://www.openswatchbook.org/uri/2009/osb"
   xmlns:dc="http://purl.org/dc/elements/1.1/"
   xmlns:cc="http://creativecommons.org/ns#"
   xmlns:rdf="http://www.w3.org/1999/02/22-rdf-syntax-ns#"
   xmlns:svg="http://www.w3.org/2000/svg"
   xmlns="http://www.w3.org/2000/svg"
   xmlns:sodipodi="http://sodipodi.sourceforge.net/DTD/sodipodi-0.dtd"
   xmlns:inkscape="http://www.inkscape.org/namespaces/inkscape"
   width="196.02499"
   height="54"
   viewBox="0 0 51.864946 14.287501"
   version="1.1"
   id="svg8"
   inkscape:version="1.0.2 (e86c870879, 2021-01-15)"
   sodipodi:docname="logo-text.svg">
  <defs
     id="defs2">
    <linearGradient
       id="linearGradient1054"
       osb:paint="gradient">
      <stop
         style="stop-color:#8b7aa0;stop-opacity:1;"
         offset="0"
         id="stop1050" />
      <stop
         style="stop-color:#8b7aa0;stop-opacity:0;"
         offset="1"
         id="stop1052" />
    </linearGradient>
  </defs>
  <sodipodi:namedview
     id="base"
     pagecolor="#ffffff"
     bordercolor="#666666"
     borderopacity="1.0"
     inkscape:pageopacity="0.0"
     inkscape:pageshadow="2"
     inkscape:zoom="1.7413867"
     inkscape:cx="-89.549237"
     inkscape:cy="41.431434"
     inkscape:document-units="mm"
     inkscape:current-layer="layer1"
     inkscape:document-rotation="0"
     showgrid="false"
     inkscape:window-width="1920"
     inkscape:window-height="1016"
     inkscape:window-x="0"
     inkscape:window-y="0"
     inkscape:window-maximized="1"
     units="px" />
  <metadata
     id="metadata5">
    <rdf:RDF>
      <cc:Work
         rdf:about="">
        <dc:format>image/svg+xml</dc:format>
        <dc:type
           rdf:resource="http://purl.org/dc/dcmitype/StillImage" />
        <dc:title />
      </cc:Work>
    </rdf:RDF>
  </metadata>
  <g
     inkscape:label="Layer 1"
     inkscape:groupmode="layer"
     id="layer1">
    <g
       aria-label="O Penta"
       id="text841-6"
       style="font-style:normal;font-variant:normal;font-weight:bold;font-stretch:normal;font-size:11.3388px;line-height:1.25;font-family:Montserrat;-inkscape-font-specification:'Montserrat Bold';fill:#8b7aa0;fill-opacity:1;stroke:none;stroke-width:0.28347"
       transform="matrix(0.98168067,0,0,0.98168067,-11.540925,0.0807788)">
      <path
         d="m 18.72101,3.1638313 q 1.553415,0 2.403825,0.7483609 0.85041,0.737022 0.85041,2.097678 0,1.4400277 -0.85041,2.2450825 -0.85041,0.7937161 -2.403825,0.7937161 H 17.621146 V 11.11233 H 14.990544 V 3.1638313 Z m -0.136066,3.8892086 q 0.430874,0 0.65765,-0.2494536 0.238115,-0.2607924 0.238115,-0.7143445 0,-0.4422132 -0.238115,-0.680328 -0.226776,-0.2494536 -0.65765,-0.2494536 h -0.963798 v 1.8935797 z"
         style="font-style:normal;font-variant:normal;font-weight:bold;font-stretch:normal;font-family:Montserrat;-inkscape-font-specification:'Montserrat Bold';fill:#8b7aa0;fill-opacity:1;stroke-width:0.28347"
         id="path850" />
      <path
         d="m 25.683021,4.8192962 q 1.020492,0 1.768853,0.4195356 0.748361,0.4195356 1.145219,1.2019129 0.396858,0.7710384 0.396858,1.814208 0,0.2154372 -0.01134,0.3288252 H 24.945999 Q 25.070726,8.9466196 25.331518,9.1393792 25.60365,9.3208 25.97783,9.3208 q 0.668989,0 1.258607,-0.5556013 l 1.326639,1.3039623 q -0.498907,0.555601 -1.213251,0.85041 -0.703006,0.28347 -1.598771,0.28347 -1.04317,0 -1.814208,-0.385519 -0.7597,-0.396858 -1.167897,-1.1112028 -0.396858,-0.7143444 -0.396858,-1.6668037 0,-0.9751368 0.408197,-1.70082 0.408197,-0.7256833 1.156558,-1.1225413 0.7597,-0.396858 1.746175,-0.396858 z m 0.748361,2.5852465 q 0.02268,-0.3855192 -0.19276,-0.6349728 -0.204098,-0.2494536 -0.532923,-0.2494536 -0.317487,0 -0.532924,0.2381148 -0.204098,0.2381148 -0.28347,0.6463116 z"
         style="font-style:normal;font-variant:normal;font-weight:bold;font-stretch:normal;font-family:Montserrat;-inkscape-font-specification:'Montserrat Bold';fill:#8b7aa0;fill-opacity:1;stroke-width:0.28347"
         id="path852" />
      <path
         d="m 34.22112,4.7966186 q 0.646312,0 1.145219,0.2948088 0.510246,0.2948088 0.793716,0.8277324 0.28347,0.5329237 0.28347,1.2359293 V 11.11233 h -2.55123 V 7.8921111 q 0,-0.3855192 -0.204099,-0.6122952 -0.204098,-0.2381148 -0.532923,-0.2381148 -0.374181,0 -0.600957,0.2721312 -0.215437,0.2721312 -0.215437,0.7256832 V 11.11233 h -2.55123 V 4.9100066 h 2.55123 V 5.794433 Q 32.656366,5.3068646 33.132595,5.057411 33.620164,4.7966186 34.22112,4.7966186 Z"
         style="font-style:normal;font-variant:normal;font-weight:bold;font-stretch:normal;font-family:Montserrat;-inkscape-font-specification:'Montserrat Bold';fill:#8b7aa0;fill-opacity:1;stroke-width:0.28347"
         id="path854" />
      <path
         d="m 41.942833,10.840199 q -0.306148,0.181421 -0.805055,0.28347 -0.487569,0.102049 -0.997815,0.102049 -1.043169,0 -1.678142,-0.56694 Q 37.838187,10.0805 37.838187,9.1167016 V 6.8602803 h -0.85041 V 5.2501706 h 0.85041 V 3.5153341 h 2.539891 v 1.7348365 h 1.451367 v 1.6101097 h -1.451367 v 1.870902 q 0,0.2494537 0.136066,0.3968581 0.136065,0.1360656 0.362841,0.1247268 0.215438,0 0.634973,-0.1587432 z"
         style="font-style:normal;font-variant:normal;font-weight:bold;font-stretch:normal;font-family:Montserrat;-inkscape-font-specification:'Montserrat Bold';fill:#8b7aa0;fill-opacity:1;stroke-width:0.28347"
         id="path856" />
      <path
         d="m 45.752661,4.7966186 q 1.349317,0 2.097678,0.6122952 0.759699,0.6009564 0.759699,1.6894813 V 11.11233 h -2.505875 v -0.668989 q -0.56694,0.782377 -1.746175,0.782377 -0.975137,0 -1.530738,-0.521584 -0.544262,-0.532924 -0.544262,-1.4286892 0,-0.9184429 0.612295,-1.3946725 0.612295,-0.4762296 1.79153,-0.4989072 h 1.41735 Q 46.092825,7.0530399 45.843371,6.8829579 45.605256,6.7015371 45.140365,6.7015371 q -0.362841,0 -0.873087,0.1020492 -0.498907,0.1020492 -1.009153,0.2948088 L 42.691185,5.397575 Q 43.484901,5.1027662 44.267278,4.9553618 45.060994,4.7966186 45.752661,4.7966186 Z M 45.242415,9.60427 q 0.249453,0 0.476229,-0.1247268 0.238115,-0.1247268 0.385519,-0.3515028 V 8.5611003 h -0.884426 q -0.544262,0 -0.544262,0.4989073 0,0.2607924 0.147404,0.4081968 0.147404,0.1360656 0.419536,0.1360656 z"
         style="font-style:normal;font-variant:normal;font-weight:bold;font-stretch:normal;font-family:Montserrat;-inkscape-font-specification:'Montserrat Bold';fill:#8b7aa0;fill-opacity:1;stroke-width:0.28347"
         id="path858" />
    </g>
  </g>
</svg>
